<?xml version="1.0" standalone="no"?>
<!DOCTYPE svg PUBLIC "-//W3C//DTD SVG 20010904//EN"
 "http://www.w3.org/TR/2001/REC-SVG-20010904/DTD/svg10.dtd">
<svg version="1.0" xmlns="http://www.w3.org/2000/svg"
 width="1312.000000pt" height="1312.000000pt" viewBox="0 0 1312.000000 1312.000000"
 preserveAspectRatio="xMidYMid meet">
<metadata>
Created by potrace 1.14, written by Peter Selinger 2001-2017
</metadata>
<g transform="translate(0.000000,1312.000000) scale(0.100000,-0.100000)"
fill="#000000" stroke="none">
<path d="M4548 10426 c-2 -11 -3 -697 -3 -1523 1 -1417 0 -1502 -16 -1490 -24
17 -142 105 -154 115 -70 57 -298 176 -428 225 -50 19 -101 38 -112 43 -11 4
-22 8 -25 9 -34 11 -127 39 -135 41 -25 7 -102 26 -120 30 -11 2 -31 6 -45 9
-14 3 -36 7 -50 10 -14 3 -36 7 -50 10 -14 3 -41 7 -60 9 -19 3 -51 7 -70 11
-100 16 -632 30 -654 17 -5 -3 -32 -6 -62 -7 -64 -4 -139 -13 -239 -30 -16 -3
-46 -8 -65 -11 -19 -3 -62 -12 -95 -21 -33 -8 -71 -17 -84 -19 -13 -3 -32 -9
-43 -15 -10 -5 -18 -7 -18 -4 0 3 -16 -1 -35 -9 -20 -9 -38 -15 -40 -15 -18
-1 -62 -15 -72 -24 -7 -5 -13 -7 -13 -4 0 3 -21 -3 -48 -14 -26 -11 -56 -24
-67 -29 -11 -4 -42 -18 -70 -30 -27 -12 -59 -26 -70 -31 -20 -9 -32 -15 -70
-37 -11 -7 -27 -15 -35 -19 -32 -14 -175 -106 -178 -114 -2 -5 -9 -9 -15 -9
-7 0 -24 -11 -39 -25 -15 -14 -31 -25 -35 -25 -4 0 -25 -16 -46 -35 -21 -19
-40 -35 -43 -35 -9 0 -143 -129 -224 -216 -182 -196 -361 -485 -467 -755 -39
-97 -68 -181 -65 -186 1 -2 -5 -18 -14 -38 -8 -19 -11 -35 -8 -35 4 0 1 -6 -5
-13 -6 -8 -13 -29 -15 -48 -3 -19 -5 -34 -6 -34 -2 0 -5 -15 -19 -80 -6 -27
-13 -61 -16 -75 -3 -14 -8 -45 -11 -70 -3 -25 -8 -53 -10 -63 -4 -24 -13 -115
-20 -202 -9 -119 -4 -550 6 -550 1 0 3 -18 4 -40 3 -36 17 -132 32 -225 8 -53
44 -209 61 -265 20 -66 62 -195 73 -220 51 -124 127 -283 175 -363 34 -57 61
-99 72 -110 7 -7 13 -17 13 -21 0 -4 11 -21 25 -37 14 -16 25 -32 25 -36 0 -5
8 -16 17 -26 10 -10 34 -38 53 -62 44 -57 263 -277 310 -312 19 -14 45 -35 58
-46 13 -11 49 -38 80 -59 31 -21 58 -41 60 -45 2 -5 8 -8 12 -8 5 0 29 -14 54
-31 71 -47 242 -132 372 -184 65 -26 123 -48 128 -49 23 -5 102 -29 121 -37
45 -18 297 -70 410 -84 168 -21 285 -28 456 -27 149 0 197 3 319 17 19 2 60 7
90 10 30 3 80 10 110 17 30 6 64 12 75 14 11 1 20 3 20 4 0 1 9 3 20 5 11 2
38 9 60 15 43 11 53 14 100 25 17 4 35 12 41 17 7 5 16 8 20 7 5 -1 22 3 37 9
16 7 34 12 41 12 7 0 16 3 20 7 4 5 11 8 14 9 7 1 17 5 92 36 114 49 299 148
334 180 11 10 26 18 33 18 8 0 16 7 19 15 4 8 10 15 15 15 13 0 99 63 99 72 0
4 5 8 10 8 10 0 55 37 113 93 16 15 32 27 37 27 5 0 9 -104 9 -231 0 -128 3
-235 8 -240 9 -9 100 -15 108 -8 3 3 25 3 49 -1 23 -3 51 -3 62 0 10 4 32 4
49 0 16 -3 44 -3 61 0 16 4 38 4 49 0 10 -3 38 -3 62 0 23 4 43 4 43 1 0 -7
99 -6 106 1 2 3 24 2 48 -2 23 -3 51 -3 62 0 10 4 32 4 49 0 16 -3 44 -3 61 0
16 4 38 4 49 0 10 -3 38 -3 62 0 23 4 43 4 43 1 0 -7 99 -6 106 1 2 3 24 2 48
-2 23 -3 51 -3 62 0 10 4 32 4 49 0 16 -3 44 -3 61 0 16 4 38 4 49 0 10 -3 38
-3 62 0 23 4 43 4 43 1 0 -5 96 -5 110 0 3 1 8 1 11 1 7 -1 72 -2 131 -3 l37
0 0 3784 0 3784 -899 0 -898 0 -4 -21z m-1033 -3890 c50 -6 147 -24 175 -33 8
-2 15 -4 15 -3 0 0 34 -11 75 -25 86 -29 270 -119 299 -147 11 -10 23 -18 26
-18 22 0 191 -149 253 -224 56 -67 180 -266 166 -266 -2 0 2 -12 9 -27 11 -23
14 -112 13 -468 l-1 -440 -38 -75 c-39 -76 -76 -141 -86 -150 -4 -3 -17 -21
-31 -40 -75 -107 -237 -255 -340 -311 -19 -11 -42 -24 -50 -29 -27 -18 -144
-68 -210 -90 -123 -41 -207 -56 -360 -65 -52 -2 -97 -5 -100 -6 -3 -1 -8 -1
-11 -1 -4 1 -49 4 -100 7 -83 5 -163 15 -224 30 -98 23 -141 37 -210 65 -44
18 -92 41 -107 52 -14 10 -29 18 -33 18 -6 0 -78 48 -114 75 -46 35 -166 160
-204 212 -101 140 -175 332 -204 528 -18 125 -8 429 19 545 5 25 11 52 13 60
2 8 4 15 5 15 1 0 3 8 6 18 7 31 11 42 22 70 7 16 12 30 12 32 0 17 62 134
105 200 50 76 165 201 235 255 97 76 337 190 430 205 17 3 45 7 63 10 17 3 38
7 46 10 8 3 46 8 85 12 39 3 72 6 73 7 5 4 232 -2 278 -8z"/>
<path d="M7579 10426 c-1 -28 -1 -7506 0 -7528 1 -12 9 -18 24 -18 12 1 43 0
68 0 26 0 51 0 55 1 5 1 12 1 17 -1 16 -4 98 -3 102 2 3 3 25 2 49 -2 23 -3
51 -4 60 0 10 3 42 3 72 0 31 -3 57 -3 59 0 2 4 24 4 48 0 24 -3 52 -3 63 0
10 4 32 4 49 0 16 -3 44 -3 61 0 16 4 38 4 49 0 10 -3 38 -3 62 0 23 4 43 4
43 1 0 -7 99 -6 106 1 2 3 24 2 48 -2 23 -3 51 -3 62 0 10 4 32 4 49 0 16 -3
44 -3 61 0 16 4 38 4 49 0 10 -3 38 -3 62 0 23 4 43 4 43 1 0 -5 96 -5 110 0
3 1 8 1 12 0 8 -1 82 -1 108 0 8 0 49 0 90 -1 131 -2 121 -7 120 53 0 74 0 85
0 102 -1 8 -1 60 -1 115 0 55 0 107 0 115 0 13 0 446 0 478 0 24 0 272 0 287
0 28 0 305 0 325 0 23 0 174 0 193 0 10 0 442 0 475 0 24 0 272 0 287 0 22 0
302 0 323 0 9 0 55 0 102 0 107 0 109 2 142 1 23 33 89 49 103 3 3 17 21 30
40 51 75 147 179 221 240 128 106 337 212 483 245 68 15 126 27 166 32 68 8
293 10 310 2 8 -4 33 -9 55 -12 36 -5 64 -12 135 -33 63 -19 163 -85 225 -148
104 -107 174 -277 192 -471 2 -27 5 -711 6 -1520 l2 -1470 40 -2 c22 -1 42 -2
45 -3 15 -4 110 -4 110 0 0 4 128 4 138 0 8 -4 214 -1 218 2 2 3 24 2 48 -2
23 -3 51 -3 62 0 10 4 30 4 44 0 14 -3 42 -3 62 0 21 4 40 5 42 3 6 -6 216 -7
222 -1 2 3 24 2 48 -2 23 -3 51 -3 62 0 10 4 30 4 44 0 14 -3 42 -3 62 0 21 4
40 5 42 2 4 -3 154 -4 241 -1 6 0 45 -1 88 -2 42 -1 79 0 82 3 3 3 23 2 45 -2
21 -4 43 -4 48 -1 9 6 8 3283 -1 3339 -4 18 -8 36 -11 40 -3 4 -1 14 4 22 5 8
5 19 1 25 -5 5 -11 28 -14 50 -17 138 -15 127 -42 235 -9 36 -18 72 -20 80 -2
8 -13 42 -25 75 -11 33 -21 62 -22 65 -6 36 -92 218 -135 288 -18 29 -33 56
-33 60 0 4 -11 19 -25 34 -14 15 -25 30 -25 34 0 26 -206 250 -298 324 -24 19
-53 43 -64 53 -12 9 -25 17 -29 17 -4 0 -14 6 -21 13 -41 42 -305 165 -442
207 -87 27 -203 54 -286 66 -19 2 -46 7 -60 10 -38 7 -111 16 -155 18 -22 1
-45 4 -50 7 -13 7 -487 2 -545 -5 -121 -17 -224 -34 -270 -46 -19 -5 -46 -11
-60 -14 -45 -9 -65 -14 -108 -30 -23 -8 -46 -16 -50 -17 -8 -2 -13 -3 -67 -20
-60 -18 -230 -91 -233 -101 -2 -4 -10 -8 -18 -8 -8 0 -44 -18 -80 -40 -36 -22
-68 -40 -70 -40 -7 0 -68 -44 -76 -55 -4 -5 -8 -6 -8 -2 0 7 -44 -22 -87 -58
-7 -5 -18 -14 -25 -20 -31 -23 -144 -119 -158 -134 -9 -9 -26 -25 -38 -35
l-23 -20 0 135 c0 74 0 141 0 149 0 8 0 74 0 145 0 72 0 137 0 145 0 28 0 305
0 325 0 23 0 174 0 193 0 10 0 442 0 475 0 24 0 272 0 287 0 28 0 305 0 325 0
23 0 174 0 193 -2 106 0 506 2 519 1 4 1 65 0 134 l-1 126 -900 0 -900 0 -1
-21z"/>
</g>
</svg>
