<svg width="136" height="24" viewBox="0 0 136 24" fill="none" xmlns="http://www.w3.org/2000/svg">
<path d="M6.72 18.36C5.52 18.36 4.456 18.112 3.528 17.616C2.6 17.104 1.88 16.392 1.368 15.48C0.856 14.552 0.6 13.48 0.6 12.264C0.6 11.064 0.856 10 1.368 9.072C1.88 8.128 2.592 7.4 3.504 6.888C4.432 6.376 5.504 6.12 6.72 6.12C7.52 6.12 8.256 6.232 8.928 6.456C9.6 6.68 10.176 7 10.656 7.416V0.263999H14.88V18H10.8V16.848C9.728 17.856 8.368 18.36 6.72 18.36ZM7.824 15.096C8.464 15.096 9.04 14.936 9.552 14.616C10.064 14.28 10.432 13.832 10.656 13.272V11.232C10.432 10.672 10.064 10.232 9.552 9.912C9.04 9.576 8.464 9.408 7.824 9.408C6.96 9.408 6.264 9.664 5.736 10.176C5.208 10.688 4.944 11.384 4.944 12.264C4.944 13.144 5.208 13.84 5.736 14.352C6.264 14.848 6.96 15.096 7.824 15.096ZM20.0169 4.944C19.3769 4.944 18.8409 4.736 18.4089 4.32C17.9769 3.904 17.7609 3.376 17.7609 2.736C17.7609 2.112 17.9769 1.592 18.4089 1.176C18.8409 0.743999 19.3769 0.527999 20.0169 0.527999C20.6409 0.527999 21.1689 0.743999 21.6009 1.176C22.0489 1.592 22.2729 2.112 22.2729 2.736C22.2729 3.36 22.0489 3.888 21.6009 4.32C21.1689 4.736 20.6409 4.944 20.0169 4.944ZM17.9049 6.48H22.1289V18H17.9049V6.48ZM31.4246 23.52C30.6566 23.52 29.8806 23.448 29.0966 23.304C28.3286 23.16 27.6646 22.968 27.1046 22.728V19.8C28.3686 20.344 29.8086 20.616 31.4246 20.616C32.5926 20.616 33.4326 20.376 33.9446 19.896C34.4726 19.416 34.7366 18.712 34.7366 17.784V17.088C34.2726 17.488 33.6966 17.8 33.0086 18.024C32.3366 18.248 31.6166 18.36 30.8486 18.36C29.6326 18.36 28.5606 18.104 27.6326 17.592C26.7046 17.08 25.9766 16.36 25.4486 15.432C24.9366 14.504 24.6806 13.44 24.6806 12.24C24.6806 11.024 24.9366 9.952 25.4486 9.024C25.9606 8.096 26.6806 7.384 27.6086 6.888C28.5366 6.376 29.6006 6.12 30.8006 6.12C32.4486 6.12 33.8086 6.624 34.8806 7.632V6.48H38.9606V17.208C38.9606 19.208 38.3446 20.76 37.1126 21.864C35.8966 22.968 34.0006 23.52 31.4246 23.52ZM31.9046 15.096C32.5606 15.096 33.1446 14.928 33.6566 14.592C34.1686 14.256 34.5286 13.808 34.7366 13.248V11.232C34.5126 10.672 34.1446 10.232 33.6326 9.912C33.1206 9.576 32.5446 9.408 31.9046 9.408C31.0406 9.408 30.3446 9.664 29.8166 10.176C29.2886 10.672 29.0246 11.352 29.0246 12.216C29.0246 13.096 29.2886 13.8 29.8166 14.328C30.3446 14.84 31.0406 15.096 31.9046 15.096ZM44.0976 4.944C43.4576 4.944 42.9216 4.736 42.4896 4.32C42.0576 3.904 41.8416 3.376 41.8416 2.736C41.8416 2.112 42.0576 1.592 42.4896 1.176C42.9216 0.743999 43.4576 0.527999 44.0976 0.527999C44.7216 0.527999 45.2496 0.743999 45.6816 1.176C46.1296 1.592 46.3536 2.112 46.3536 2.736C46.3536 3.36 46.1296 3.888 45.6816 4.32C45.2496 4.736 44.7216 4.944 44.0976 4.944ZM41.9856 6.48H46.2096V18H41.9856V6.48ZM54.2333 18.36C52.8093 18.36 51.7293 17.968 50.9933 17.184C50.2733 16.384 49.9133 15.296 49.9133 13.92V9.408H48.2813V6.48H49.9133V3.024H54.1373V6.48H56.7773V9.408H54.1373V13.344C54.1373 13.968 54.2493 14.416 54.4733 14.688C54.7133 14.96 55.1293 15.096 55.7213 15.096C56.2493 15.096 56.7773 14.952 57.3053 14.664V17.808C56.8893 18 56.4413 18.136 55.9613 18.216C55.4973 18.312 54.9213 18.36 54.2333 18.36ZM63.2115 18.36C61.7715 18.36 60.6035 18.016 59.7075 17.328C58.8275 16.624 58.3875 15.648 58.3875 14.4C58.3875 13.104 58.8115 12.112 59.6595 11.424C60.5235 10.72 61.7555 10.368 63.3555 10.368C63.9795 10.368 64.6035 10.44 65.2275 10.584C65.8515 10.712 66.3875 10.888 66.8355 11.112V10.872C66.8355 9.64 65.8275 9.024 63.8115 9.024C62.4035 9.024 61.1155 9.296 59.9475 9.84V6.936C60.4595 6.696 61.1315 6.504 61.9635 6.36C62.7955 6.2 63.6595 6.12 64.5555 6.12C66.6995 6.12 68.3155 6.552 69.4035 7.416C70.5075 8.264 71.0595 9.456 71.0595 10.992V18H67.0995V17.016C66.6675 17.432 66.1235 17.76 65.4675 18C64.8115 18.24 64.0595 18.36 63.2115 18.36ZM64.4595 15.768C64.9555 15.768 65.4195 15.672 65.8515 15.48C66.2835 15.272 66.6115 15.008 66.8355 14.688V13.68C66.1475 13.216 65.3635 12.984 64.4835 12.984C63.9235 12.984 63.4915 13.104 63.1875 13.344C62.8835 13.584 62.7315 13.936 62.7315 14.4C62.7315 14.832 62.8755 15.168 63.1635 15.408C63.4675 15.648 63.8995 15.768 64.4595 15.768ZM73.8141 0.263999H78.0381V18H73.8141V0.263999Z" fill="white"/>
<path d="M89.7853 0.263999H94.0093V7.656C94.5213 7.144 95.1053 6.76 95.7613 6.504C96.4333 6.248 97.1373 6.12 97.8733 6.12C99.4893 6.12 100.681 6.544 101.449 7.392C102.233 8.224 102.625 9.36 102.625 10.8V18H98.4013V11.352C98.4013 10.056 97.8093 9.408 96.6253 9.408C96.0813 9.408 95.5853 9.536 95.1373 9.792C94.6893 10.032 94.3133 10.408 94.0093 10.92V18H89.7853V0.263999ZM110.02 18.36C108.436 18.36 107.244 17.92 106.444 17.04C105.66 16.16 105.268 15 105.268 13.56V6.48H109.492V13.08C109.492 14.408 110.092 15.072 111.292 15.072C111.836 15.072 112.332 14.944 112.78 14.688C113.228 14.432 113.596 14.056 113.884 13.56V6.48H118.108V18H114.028V16.752C113.532 17.28 112.932 17.68 112.228 17.952C111.524 18.224 110.788 18.36 110.02 18.36ZM129.151 18.36C127.503 18.36 126.143 17.856 125.071 16.848V18H120.991V0.263999H125.215V7.416C125.679 7.016 126.255 6.704 126.943 6.48C127.647 6.24 128.383 6.12 129.151 6.12C130.367 6.12 131.431 6.376 132.343 6.888C133.271 7.4 133.991 8.128 134.503 9.072C135.015 10 135.271 11.064 135.271 12.264C135.271 13.48 135.015 14.552 134.503 15.48C133.991 16.392 133.271 17.104 132.343 17.616C131.415 18.112 130.351 18.36 129.151 18.36ZM128.047 15.096C128.911 15.096 129.607 14.848 130.135 14.352C130.663 13.84 130.927 13.144 130.927 12.264C130.927 11.384 130.663 10.688 130.135 10.176C129.607 9.664 128.911 9.408 128.047 9.408C127.407 9.408 126.831 9.576 126.319 9.912C125.807 10.232 125.439 10.672 125.215 11.232V13.272C125.439 13.832 125.807 14.28 126.319 14.616C126.831 14.936 127.407 15.096 128.047 15.096Z" fill="white" fill-opacity="0.4"/>
</svg>
