<svg width="181" height="32" viewBox="0 0 181 32" fill="none" xmlns="http://www.w3.org/2000/svg">
<path d="M8.96 24.48C7.36 24.48 5.94133 24.1493 4.704 23.488C3.46667 22.8053 2.50667 21.856 1.824 20.64C1.14133 19.4027 0.8 17.9733 0.8 16.352C0.8 14.752 1.14133 13.3333 1.824 12.096C2.50667 10.8373 3.456 9.86667 4.672 9.184C5.90933 8.50133 7.33867 8.16 8.96 8.16C10.0267 8.16 11.008 8.30933 11.904 8.608C12.8 8.90667 13.568 9.33333 14.208 9.888V0.351999H19.84V24H14.4V22.464C12.9707 23.808 11.1573 24.48 8.96 24.48ZM10.432 20.128C11.2853 20.128 12.0533 19.9147 12.736 19.488C13.4187 19.04 13.9093 18.4427 14.208 17.696V14.976C13.9093 14.2293 13.4187 13.6427 12.736 13.216C12.0533 12.768 11.2853 12.544 10.432 12.544C9.28 12.544 8.352 12.8853 7.648 13.568C6.944 14.2507 6.592 15.1787 6.592 16.352C6.592 17.5253 6.944 18.4533 7.648 19.136C8.352 19.7973 9.28 20.128 10.432 20.128ZM26.6892 6.592C25.8359 6.592 25.1212 6.31467 24.5452 5.76C23.9692 5.20533 23.6812 4.50133 23.6812 3.648C23.6812 2.816 23.9692 2.12267 24.5452 1.568C25.1212 0.991999 25.8359 0.703999 26.6892 0.703999C27.5212 0.703999 28.2252 0.991999 28.8012 1.568C29.3986 2.12267 29.6972 2.816 29.6972 3.648C29.6972 4.48 29.3986 5.184 28.8012 5.76C28.2252 6.31467 27.5212 6.592 26.6892 6.592ZM23.8732 8.64H29.5052V24H23.8732V8.64ZM41.8995 31.36C40.8755 31.36 39.8408 31.264 38.7955 31.072C37.7715 30.88 36.8862 30.624 36.1395 30.304V26.4C37.8248 27.1253 39.7448 27.488 41.8995 27.488C43.4568 27.488 44.5768 27.168 45.2595 26.528C45.9635 25.888 46.3155 24.9493 46.3155 23.712V22.784C45.6968 23.3173 44.9288 23.7333 44.0115 24.032C43.1155 24.3307 42.1555 24.48 41.1315 24.48C39.5102 24.48 38.0808 24.1387 36.8435 23.456C35.6062 22.7733 34.6355 21.8133 33.9315 20.576C33.2488 19.3387 32.9075 17.92 32.9075 16.32C32.9075 14.6987 33.2488 13.2693 33.9315 12.032C34.6142 10.7947 35.5742 9.84533 36.8115 9.184C38.0488 8.50133 39.4675 8.16 41.0675 8.16C43.2648 8.16 45.0782 8.832 46.5075 10.176V8.64H51.9475V22.944C51.9475 25.6107 51.1262 27.68 49.4835 29.152C47.8622 30.624 45.3342 31.36 41.8995 31.36ZM42.5395 20.128C43.4142 20.128 44.1928 19.904 44.8755 19.456C45.5582 19.008 46.0382 18.4107 46.3155 17.664V14.976C46.0168 14.2293 45.5262 13.6427 44.8435 13.216C44.1608 12.768 43.3928 12.544 42.5395 12.544C41.3875 12.544 40.4595 12.8853 39.7555 13.568C39.0515 14.2293 38.6995 15.136 38.6995 16.288C38.6995 17.4613 39.0515 18.4 39.7555 19.104C40.4595 19.7867 41.3875 20.128 42.5395 20.128ZM58.7968 6.592C57.9434 6.592 57.2288 6.31467 56.6528 5.76C56.0768 5.20533 55.7888 4.50133 55.7888 3.648C55.7888 2.816 56.0768 2.12267 56.6528 1.568C57.2288 0.991999 57.9434 0.703999 58.7968 0.703999C59.6288 0.703999 60.3328 0.991999 60.9088 1.568C61.5061 2.12267 61.8048 2.816 61.8048 3.648C61.8048 4.48 61.5061 5.184 60.9088 5.76C60.3328 6.31467 59.6288 6.592 58.7968 6.592ZM55.9808 8.64H61.6128V24H55.9808V8.64ZM72.311 24.48C70.4123 24.48 68.9723 23.9573 67.991 22.912C67.031 21.8453 66.551 20.3947 66.551 18.56V12.544H64.375V8.64H66.551V4.032H72.183V8.64H75.703V12.544H72.183V17.792C72.183 18.624 72.3323 19.2213 72.631 19.584C72.951 19.9467 73.5057 20.128 74.295 20.128C74.999 20.128 75.703 19.936 76.407 19.552V23.744C75.8523 24 75.255 24.1813 74.615 24.288C73.9963 24.416 73.2283 24.48 72.311 24.48ZM84.282 24.48C82.362 24.48 80.8047 24.0213 79.61 23.104C78.4367 22.1653 77.85 20.864 77.85 19.2C77.85 17.472 78.4153 16.1493 79.546 15.232C80.698 14.2933 82.3407 13.824 84.474 13.824C85.306 13.824 86.138 13.92 86.97 14.112C87.802 14.2827 88.5167 14.5173 89.114 14.816V14.496C89.114 12.8533 87.77 12.032 85.082 12.032C83.2047 12.032 81.4873 12.3947 79.93 13.12V9.248C80.6127 8.928 81.5087 8.672 82.618 8.48C83.7273 8.26667 84.8793 8.16 86.074 8.16C88.9327 8.16 91.0873 8.736 92.538 9.888C94.01 11.0187 94.746 12.608 94.746 14.656V24H89.466V22.688C88.89 23.2427 88.1647 23.68 87.29 24C86.4153 24.32 85.4127 24.48 84.282 24.48ZM85.946 21.024C86.6073 21.024 87.226 20.896 87.802 20.64C88.378 20.3627 88.8153 20.0107 89.114 19.584V18.24C88.1967 17.6213 87.1513 17.312 85.978 17.312C85.2313 17.312 84.6553 17.472 84.25 17.792C83.8447 18.112 83.642 18.5813 83.642 19.2C83.642 19.776 83.834 20.224 84.218 20.544C84.6233 20.864 85.1993 21.024 85.946 21.024ZM98.4188 0.351999H104.051V24H98.4188V0.351999Z" fill="#386BEE"/>
<path d="M119.714 0.351999H125.346V10.208C126.028 9.52533 126.807 9.01333 127.682 8.672C128.578 8.33067 129.516 8.16 130.498 8.16C132.652 8.16 134.242 8.72533 135.266 9.856C136.311 10.9653 136.834 12.48 136.834 14.4V24H131.202V15.136C131.202 13.408 130.412 12.544 128.834 12.544C128.108 12.544 127.447 12.7147 126.85 13.056C126.252 13.376 125.751 13.8773 125.346 14.56V24H119.714V0.351999ZM146.693 24.48C144.581 24.48 142.992 23.8933 141.925 22.72C140.88 21.5467 140.357 20 140.357 18.08V8.64H145.989V17.44C145.989 19.2107 146.789 20.096 148.389 20.096C149.115 20.096 149.776 19.9253 150.373 19.584C150.971 19.2427 151.461 18.7413 151.845 18.08V8.64H157.478V24H152.038V22.336C151.376 23.04 150.576 23.5733 149.637 23.936C148.699 24.2987 147.717 24.48 146.693 24.48ZM172.201 24.48C170.004 24.48 168.191 23.808 166.761 22.464V24H161.321V0.351999H166.953V9.888C167.572 9.35467 168.34 8.93867 169.257 8.64C170.196 8.32 171.177 8.16 172.201 8.16C173.823 8.16 175.241 8.50133 176.457 9.184C177.695 9.86667 178.655 10.8373 179.337 12.096C180.02 13.3333 180.361 14.752 180.361 16.352C180.361 17.9733 180.02 19.4027 179.337 20.64C178.655 21.856 177.695 22.8053 176.457 23.488C175.22 24.1493 173.801 24.48 172.201 24.48ZM170.729 20.128C171.881 20.128 172.809 19.7973 173.513 19.136C174.217 18.4533 174.569 17.5253 174.569 16.352C174.569 15.1787 174.217 14.2507 173.513 13.568C172.809 12.8853 171.881 12.544 170.729 12.544C169.876 12.544 169.108 12.768 168.425 13.216C167.743 13.6427 167.252 14.2293 166.953 14.976V17.696C167.252 18.4427 167.743 19.04 168.425 19.488C169.108 19.9147 169.876 20.128 170.729 20.128Z" fill="black"/>
</svg>
