<svg width="246" height="33" viewBox="0 0 246 33" fill="none" xmlns="http://www.w3.org/2000/svg">
<path d="M21.692 16.752C21.692 16.1627 21.5333 15.5847 21.216 15.018C20.9213 14.4513 20.4793 13.9527 19.89 13.522C19.3233 13.0687 18.598 12.7173 17.714 12.468C16.8527 12.196 15.8667 12.06 14.756 12.06H14.586C13.3847 12.06 12.3873 12.196 11.594 12.468C10.8233 12.7173 10.2113 13.0687 9.758 13.522C9.30467 13.9527 8.976 14.4513 8.772 15.018C8.59067 15.5847 8.5 16.1627 8.5 16.752V16.888C8.5 17.432 8.61333 17.9873 8.84 18.554C9.06667 19.1207 9.418 19.6307 9.894 20.084C10.3927 20.5373 11.0273 20.9113 11.798 21.206C12.5913 21.478 13.5433 21.614 14.654 21.614H14.824C15.9573 21.614 16.9433 21.478 17.782 21.206C18.6433 20.934 19.3573 20.5827 19.924 20.152C20.5133 19.6987 20.9553 19.1887 21.25 18.622C21.5447 18.0553 21.692 17.4773 21.692 16.888V16.752ZM29.308 0.703999V26H21.76V23.212C21.624 23.3933 21.352 23.6653 20.944 24.028C20.536 24.368 19.9693 24.7193 19.244 25.082C18.5187 25.4447 17.612 25.762 16.524 26.034C15.4587 26.306 14.1893 26.442 12.716 26.442H12.274C10.234 26.442 8.48867 26.1927 7.038 25.694C5.58733 25.1953 4.39733 24.5153 3.468 23.654C2.53867 22.7927 1.84733 21.7953 1.394 20.662C0.963333 19.5287 0.748 18.316 0.748 17.024V16.378C0.748 15.154 0.940667 13.998 1.326 12.91C1.734 11.7993 2.38 10.8247 3.264 9.986C4.17067 9.14733 5.338 8.49 6.766 8.014C8.194 7.51533 9.928 7.266 11.968 7.266H12.512C13.94 7.266 15.1753 7.37933 16.218 7.606C17.2833 7.83267 18.1787 8.10467 18.904 8.422C19.652 8.73933 20.2527 9.068 20.706 9.408C21.1593 9.72533 21.488 9.97467 21.692 10.156V0.703999H29.308ZM41.1121 5.94H33.5301V0.703999H41.1121V5.94ZM41.1121 26H33.5301V7.708H41.1121V26ZM58.4651 12.026C57.2411 12.026 56.2211 12.1507 55.4051 12.4C54.6118 12.6267 53.9771 12.9327 53.5011 13.318C53.0251 13.6807 52.6851 14.1113 52.4811 14.61C52.2998 15.1087 52.2091 15.6073 52.2091 16.106V16.276C52.2091 16.7973 52.3111 17.3187 52.5151 17.84C52.7418 18.3387 53.0931 18.792 53.5691 19.2C54.0678 19.5853 54.7138 19.9027 55.5071 20.152C56.3231 20.4013 57.3091 20.526 58.4651 20.526H58.6691C59.8705 20.526 60.9018 20.4127 61.7631 20.186C62.6471 19.9367 63.3611 19.6193 63.9051 19.234C64.4718 18.826 64.8911 18.3727 65.1631 17.874C65.4351 17.3527 65.5711 16.8313 65.5711 16.31V16.174C65.5711 15.63 65.4351 15.1087 65.1631 14.61C64.8911 14.1113 64.4718 13.6693 63.9051 13.284C63.3385 12.8987 62.6131 12.5927 61.7291 12.366C60.8678 12.1393 59.8478 12.026 58.6691 12.026H58.4651ZM58.0571 32.63C56.1531 32.63 54.5211 32.5053 53.1611 32.256C51.8011 32.0067 50.6565 31.678 49.7271 31.27C48.7978 30.862 48.0611 30.4087 47.5171 29.91C46.9731 29.4113 46.5538 28.924 46.2591 28.448C45.9871 27.972 45.8058 27.5187 45.7151 27.088C45.6471 26.68 45.6131 26.3513 45.6131 26.102V26H53.2631C53.2858 26.1133 53.3538 26.2607 53.4671 26.442C53.6031 26.646 53.8638 26.8387 54.2491 27.02C54.6571 27.2013 55.2465 27.36 56.0171 27.496C56.7878 27.632 57.8191 27.7 59.1111 27.7H59.2131C60.6185 27.7 61.7518 27.53 62.6131 27.19C63.4745 26.8727 64.1318 26.4647 64.5851 25.966C65.0611 25.4447 65.3671 24.878 65.5031 24.266C65.6618 23.6313 65.7411 23.0193 65.7411 22.43C65.5145 22.634 65.1858 22.8947 64.7551 23.212C64.3471 23.5293 63.7918 23.8353 63.0891 24.13C62.4091 24.402 61.5478 24.6513 60.5051 24.878C59.4851 25.082 58.2611 25.184 56.8331 25.184H56.4251C54.2718 25.184 52.4358 24.9573 50.9171 24.504C49.4211 24.028 48.1971 23.3933 47.2451 22.6C46.2931 21.784 45.5905 20.8547 45.1371 19.812C44.7065 18.7467 44.4911 17.6247 44.4911 16.446V15.766C44.4911 14.6553 44.6838 13.59 45.0691 12.57C45.4545 11.55 46.0778 10.6547 46.9391 9.884C47.8005 9.09067 48.9225 8.456 50.3051 7.98C51.7105 7.504 53.4331 7.266 55.4731 7.266H56.1871C57.7058 7.266 59.0091 7.37933 60.0971 7.606C61.1851 7.81 62.1031 8.07067 62.8511 8.388C63.5991 8.68267 64.1998 9 64.6531 9.34C65.1065 9.65733 65.4578 9.92933 65.7071 10.156V7.708H73.3231V22.668C73.3231 23.212 73.2665 23.8467 73.1531 24.572C73.0398 25.2747 72.8131 25.9887 72.4731 26.714C72.1558 27.462 71.7025 28.1873 71.1131 28.89C70.5238 29.5927 69.7531 30.216 68.8011 30.76C67.8491 31.3267 66.6818 31.78 65.2991 32.12C63.9391 32.46 62.3298 32.63 60.4711 32.63H58.0571ZM85.1209 5.94H77.5389V0.703999H85.1209V5.94ZM85.1209 26H77.5389V7.708H85.1209V26ZM96.3199 26C94.6652 26 93.4979 25.5353 92.8179 24.606C92.1379 23.654 91.7979 22.3847 91.7979 20.798V12.74H88.2279V7.708H91.7979V2.37H99.2779V7.708H102.882V12.74H99.2779V19.37C99.2779 19.8687 99.3685 20.2653 99.5499 20.56C99.7312 20.832 100.151 20.968 100.808 20.968H102.882V26H96.3199ZM122.623 17.296L115.381 18.418C114.407 18.5767 113.704 18.7693 113.273 18.996C112.843 19.2227 112.627 19.5967 112.627 20.118V20.152C112.627 20.4013 112.673 20.6507 112.763 20.9C112.877 21.1493 113.058 21.376 113.307 21.58C113.579 21.7613 113.919 21.92 114.327 22.056C114.758 22.1693 115.302 22.226 115.959 22.226C116.979 22.226 117.897 22.1013 118.713 21.852C119.529 21.6027 120.221 21.274 120.787 20.866C121.377 20.458 121.83 19.9933 122.147 19.472C122.465 18.9507 122.623 18.418 122.623 17.874V17.296ZM122.827 23.484C122.623 23.7333 122.317 24.0167 121.909 24.334C121.501 24.6513 120.957 24.9687 120.277 25.286C119.62 25.5807 118.804 25.83 117.829 26.034C116.877 26.238 115.721 26.34 114.361 26.34H113.919C112.378 26.34 111.063 26.1813 109.975 25.864C108.91 25.524 108.037 25.082 107.357 24.538C106.677 23.9713 106.179 23.3367 105.861 22.634C105.567 21.9087 105.419 21.1493 105.419 20.356V20.118C105.419 18.4407 106.009 17.1713 107.187 16.31C108.389 15.4487 110.361 14.8933 113.103 14.644L121.467 13.862C121.898 13.8167 122.193 13.726 122.351 13.59C122.533 13.4313 122.623 13.2047 122.623 12.91C122.623 12.7513 122.578 12.5813 122.487 12.4C122.419 12.2187 122.227 12.06 121.909 11.924C121.592 11.7653 121.116 11.6407 120.481 11.55C119.847 11.4593 118.974 11.414 117.863 11.414H117.693C116.56 11.414 115.676 11.4933 115.041 11.652C114.407 11.8107 113.931 12.0033 113.613 12.23C113.319 12.434 113.126 12.6493 113.035 12.876C112.967 13.1027 112.922 13.2953 112.899 13.454H105.861V13.386C105.861 12.978 105.895 12.5473 105.963 12.094C106.031 11.618 106.179 11.1533 106.405 10.7C106.655 10.2467 107.017 9.816 107.493 9.408C107.969 8.97733 108.604 8.60333 109.397 8.286C110.213 7.946 111.222 7.68533 112.423 7.504C113.625 7.3 115.075 7.198 116.775 7.198H118.645C121.297 7.198 123.371 7.37933 124.867 7.742C126.386 8.10467 127.519 8.58067 128.267 9.17C129.015 9.73667 129.48 10.3713 129.661 11.074C129.843 11.7767 129.933 12.4567 129.933 13.114V20.118C129.933 20.39 129.99 20.6167 130.103 20.798C130.239 20.9567 130.5 21.036 130.885 21.036H131.871V26H125.717C124.992 26 124.357 25.796 123.813 25.388C123.292 24.98 122.963 24.3453 122.827 23.484ZM142.269 26H134.687V0.703999H142.269V26Z" fill="#386BEE"/>
<path d="M154.284 26H146.09V20.05H154.284V26ZM158.076 0.703999H165.658V10.768C165.862 10.564 166.191 10.2693 166.644 9.884C167.098 9.49867 167.687 9.11333 168.412 8.728C169.16 8.34267 170.044 8.014 171.064 7.742C172.107 7.44733 173.308 7.3 174.668 7.3H174.906C176.493 7.3 177.842 7.504 178.952 7.912C180.086 8.32 181.004 8.864 181.706 9.544C182.432 10.224 182.964 10.9947 183.304 11.856C183.644 12.6947 183.814 13.556 183.814 14.44V26H176.164V16.956C176.164 15.5507 175.768 14.44 174.974 13.624C174.181 12.808 172.946 12.4 171.268 12.4C169.568 12.4 168.208 12.8533 167.188 13.76C166.168 14.6667 165.658 15.868 165.658 17.364V26H158.076V0.703999ZM213.146 26H205.632V22.838C205.406 23.042 205.066 23.348 204.612 23.756C204.159 24.164 203.57 24.5607 202.844 24.946C202.119 25.3313 201.246 25.6713 200.226 25.966C199.229 26.2607 198.073 26.408 196.758 26.408H196.486C194.922 26.408 193.585 26.1927 192.474 25.762C191.364 25.3087 190.457 24.742 189.754 24.062C189.074 23.3593 188.576 22.5773 188.258 21.716C187.941 20.832 187.782 19.9593 187.782 19.098V7.708H195.432V16.752C195.432 18.112 195.806 19.2113 196.554 20.05C197.325 20.8887 198.515 21.308 200.124 21.308C201.779 21.308 203.094 20.8547 204.068 19.948C205.066 19.0413 205.564 17.84 205.564 16.344V7.708H213.146V26ZM224.941 0.703999V10.258C225.145 10.0993 225.473 9.86133 225.927 9.544C226.403 9.204 227.015 8.864 227.763 8.524C228.511 8.184 229.406 7.88933 230.449 7.64C231.514 7.39067 232.727 7.266 234.087 7.266H234.699C236.761 7.266 238.507 7.51533 239.935 8.014C241.363 8.49 242.519 9.14733 243.403 9.986C244.287 10.8247 244.921 11.7993 245.307 12.91C245.692 14.0207 245.885 15.1993 245.885 16.446V17.092C245.885 18.316 245.669 19.4947 245.239 20.628C244.808 21.7613 244.128 22.7587 243.199 23.62C242.292 24.4813 241.113 25.1727 239.663 25.694C238.235 26.1927 236.501 26.442 234.461 26.442H233.883C232.568 26.442 231.389 26.3173 230.347 26.068C229.327 25.8187 228.431 25.5353 227.661 25.218C226.913 24.878 226.301 24.538 225.825 24.198C225.349 23.858 225.02 23.5973 224.839 23.416C224.725 23.7787 224.623 24.198 224.533 24.674C224.465 25.1273 224.408 25.5693 224.363 26H217.359V0.703999H224.941ZM224.941 16.854C224.941 17.4207 225.077 17.9873 225.349 18.554C225.621 19.1207 226.029 19.6307 226.573 20.084C227.117 20.5373 227.797 20.9113 228.613 21.206C229.451 21.478 230.426 21.614 231.537 21.614H231.741C232.965 21.614 233.985 21.478 234.801 21.206C235.639 20.9113 236.297 20.5373 236.773 20.084C237.271 19.608 237.623 19.0867 237.827 18.52C238.031 17.9533 238.133 17.398 238.133 16.854V16.718C238.133 16.1287 238.031 15.5507 237.827 14.984C237.623 14.4173 237.271 13.9187 236.773 13.488C236.297 13.0347 235.639 12.672 234.801 12.4C233.985 12.128 232.965 11.992 231.741 11.992H231.537C230.403 11.992 229.417 12.128 228.579 12.4C227.763 12.672 227.083 13.0347 226.539 13.488C225.995 13.9187 225.587 14.4173 225.315 14.984C225.065 15.5507 224.941 16.1287 224.941 16.718V16.854Z" fill="black"/>
</svg>
