<svg width="1440" height="593" viewBox="0 0 1440 593" fill="none" xmlns="http://www.w3.org/2000/svg">
<mask id="mask0_2234_1071" style="mask-type:alpha" maskUnits="userSpaceOnUse" x="-200" y="-29" width="1656" height="622">
<path fill-rule="evenodd" clip-rule="evenodd" d="M1269.35 482.431C1344.98 494.453 1410.88 477.404 1455.6 460.534V388.35V366.504V-29H-200V366.504V388.35V593C-163.922 561.472 -106.221 518.759 -25.8167 490.383C82.2014 452.261 164.762 464.32 267.661 479.351C316.501 486.485 369.923 494.288 432.824 497.712C495.841 501.147 537.869 497.33 597.557 490.684C658.759 483.866 708.134 472.582 755.839 461.681C814.572 448.259 870.775 435.416 943.401 432.196L943.42 432.195C1004.81 429.478 1074.28 426.402 1159.41 450.229C1177.33 455.249 1191.32 460.162 1204.23 464.7C1224.77 471.917 1242.61 478.187 1269.35 482.431Z" fill="#0D253C"/>
</mask>
<g mask="url(#mask0_2234_1071)">
<rect x="-181.396" y="-167" width="1750" height="766" fill="#F4F7FF" fill-opacity="0.5"/>
</g>
</svg>
